Coordinates
version=1
nRows=17
nColumns=38
inDegrees=yes

Units are S.I. units (second, meters, Newtons, ...)
Angles are in degrees.

endheader
time	pelvis_tilt	pelvis_list	pelvis_rotation	pelvis_tx	pelvis_ty	pelvis_tz	hip_flexion_r	hip_adduction_r	hip_rotation_r	knee_angle_r	ankle_angle_r	subtalar_angle_r	mtp_angle_r	hip_flexion_l	hip_adduction_l	hip_rotation_l	knee_angle_l	ankle_angle_l	subtalar_angle_l	mtp_angle_l	lumbar_extension	lumbar_bending	lumbar_rotation	arm_flex_r	arm_add_r	arm_rot_r	elbow_flex_r	pro_sup_r	wrist_flex_r	wrist_dev_r	arm_flex_l	arm_add_l	arm_rot_l	elbow_flex_l	pro_sup_l	wrist_flex_l	wrist_dev_l
      6.01500000	     -6.41221791	     -4.85775417	     87.14777147	     -0.22010274	      1.06715169	     -0.41354811	     34.03561523	     -8.32058439	      2.62900505	    -85.83344550	      3.82593980	      0.00000000	      0.00000000	      8.29668921	     11.47538116	      2.99237769	    -32.12280893	     18.80702132	      0.00000000	      0.00000000	    -15.51416199	    -11.27725017	     -7.97804620	      0.00000000	      0.00000000	      0.00000000	     90.00000000	     90.00000000	      0.00000000	      0.00000000	      0.00000000	      0.00000000	      0.00000000	     90.00000000	     90.00000000	      0.00000000	      0.00000000
      6.02000000	     -5.99693382	     -5.07829776	     87.34274286	     -0.22060143	      1.06999292	     -0.41369073	     34.76536335	     -7.96764070	      2.01586061	    -84.02991478	      3.84551812	      0.00000000	      0.00000000	      7.07391334	     11.07865953	      3.55569653	    -31.20091194	     18.11469979	      0.00000000	      0.00000000	    -15.17336538	    -10.55678098	     -8.72893520	      0.00000000	      0.00000000	      0.00000000	     90.00000000	     90.00000000	      0.00000000	      0.00000000	      0.00000000	      0.00000000	      0.00000000	     90.00000000	     90.00000000	      0.00000000	      0.00000000
      6.02500000	     -5.57028984	     -5.30948243	     87.51737796	     -0.22105409	      1.07298336	     -0.41392978	     35.42205245	     -7.60184907	      1.38740344	    -82.06543569	      3.83109455	      0.00000000	      0.00000000	      5.89242245	     10.64842039	      4.05638999	    -30.28809195	     17.27695673	      0.00000000	      0.00000000	    -14.80086918	     -9.82954516	     -9.40883646	      0.00000000	      0.00000000	      0.00000000	     90.00000000	     90.00000000	      0.00000000	      0.00000000	      0.00000000	      0.00000000	      0.00000000	     90.00000000	     90.00000000	      0.00000000	      0.00000000
      6.03000000	     -5.14392275	     -5.54692469	     87.66558753	     -0.22145540	      1.07611029	     -0.41426789	     36.00115004	     -7.23475475	      0.74784097	    -79.94211958	      3.77849856	      0.00000000	      0.00000000	      4.75337613	     10.19862249	      4.48298225	    -29.38918845	     16.28880799	      0.00000000	      0.00000000	    -14.40265104	     -9.11102199	    -10.01354665	      0.00000000	      0.00000000	      0.00000000	     90.00000000	     90.00000000	      0.00000000	      0.00000000	      0.00000000	      0.00000000	      0.00000000	     90.00000000	     90.00000000	      0.00000000	      0.00000000
      6.03500000	     -4.72882032	     -5.78639065	     87.78225775	     -0.22180060	      1.07935811	     -0.41470819	     36.49730045	     -6.87782024	      0.09809456	    -77.66188249	      3.68429132	      0.00000000	      0.00000000	      3.65740828	      9.74304010	      4.82766223	    -28.50855960	     15.14603871	      0.00000000	      0.00000000	    -13.98548320	     -8.41544145	    -10.54160319	      0.00000000	      0.00000000	      0.00000000	     90.00000000	     90.00000000	      0.00000000	      0.00000000	      0.00000000	      0.00000000	      0.00000000	     90.00000000	     90.00000000	      0.00000000	      0.00000000
      6.04000000	     -4.33512319	     -6.02388074	     87.86364049	     -0.22208604	      1.08270906	     -0.41525550	     36.90443395	     -6.54186693	     -0.56396347	    -75.22621442	      3.54619765	      0.00000000	      0.00000000	      2.60480271	      9.29468956	      5.08633954	    -27.65052334	     13.84548133	      0.00000000	      0.00000000	    -13.55665237	     -7.75557130	    -10.99424008	      0.00000000	      0.00000000	      0.00000000	     90.00000000	     90.00000000	      0.00000000	      0.00000000	      0.00000000	      0.00000000	      0.00000000	     90.00000000	     90.00000000	      0.00000000	      0.00000000
      6.04500000	     -3.97199824	     -6.25568584	     87.90776795	     -0.22231019	      1.08614373	     -0.41591438	     37.21607442	     -6.23633283	     -1.24271398	    -72.63610520	      3.36343057	      0.00000000	      0.00000000	      1.59559930	      8.86544895	      5.25850258	    -26.81990459	     12.38542760	      0.00000000	      0.00000000	    -13.12371663	     -7.14265531	    -11.37517187	      0.00000000	      0.00000000	      0.00000000	     90.00000000	     90.00000000	      0.00000000	      0.00000000	      0.00000000	      0.00000000	      0.00000000	     90.00000000	     90.00000000	      0.00000000	      0.00000000
      6.05000000	     -3.64753331	     -6.47838807	     87.91483221	     -0.22247390	      1.08964051	     -0.41668482	     37.42577874	     -5.96846446	     -1.94348842	    -69.89226005	      3.13684839	      0.00000000	      0.00000000	      0.62971891	      8.46589681	      5.34698116	    -26.02258014	     10.76621136	      0.00000000	      0.00000000	    -12.69432677	     -6.58645721	    -11.69022307	      0.00000000	      0.00000000	      0.00000000	     90.00000000	     90.00000000	      0.00000000	      0.00000000	      0.00000000	      0.00000000	      0.00000000	     90.00000000	     90.00000000	      0.00000000	      0.00000000
      6.05500000	     -3.36867458	     -6.68876902	     87.88743808	     -0.22258021	      1.09317429	     -0.41755836	     37.52765969	     -5.74260375	     -2.67089577	    -66.99569708	      2.86890703	      0.00000000	      0.00000000	     -0.29282762	      8.10528132	      5.35771463	    -25.26593690	      8.99098198	      0.00000000	      0.00000000	    -12.27612029	     -6.09535144	    -11.94683077	      0.00000000	      0.00000000	      0.00000000	     90.00000000	     90.00000000	      0.00000000	      0.00000000	      0.00000000	      0.00000000	      0.00000000	     90.00000000	     90.00000000	      0.00000000	      0.00000000
      6.06000000	     -3.14123468	     -6.88361287	     87.83063435	     -0.22263398	      1.09671545	     -0.41851694	     37.51697856	     -5.55973458	     -3.42698708	    -63.94873802	      2.56340775	      0.00000000	      0.00000000	     -1.17165155	      7.79150476	      5.29959037	    -24.55920051	      7.06666388	      0.00000000	      0.00000000	    -11.87667905	     -5.67639584	    -12.15345856	      0.00000000	      0.00000000	      0.00000000	     90.00000000	     90.00000000	      0.00000000	      0.00000000	      0.00000000	      0.00000000	      0.00000000	     90.00000000	     90.00000000	      0.00000000	      0.00000000
      6.06500000	     -2.96993010	     -7.05943222	     87.75166573	     -0.22264103	      1.10022961	     -0.41953541	     37.39081422	     -5.41741338	     -4.20951163	    -60.75631619	      2.22508445	      0.00000000	      0.00000000	     -2.00569435	      7.53107730	      5.18435496	    -23.91361930	      5.00505997	      0.00000000	      0.00000000	    -11.50352528	     -5.33532835	    -12.31896727	      0.00000000	      0.00000000	      0.00000000	     90.00000000	     90.00000000	      0.00000000	      0.00000000	      0.00000000	      0.00000000	      0.00000000	     90.00000000	     90.00000000	      0.00000000	      0.00000000
      6.07000000	     -2.85837305	     -7.21223581	     87.65942739	     -0.22260680	      1.10367844	     -0.42058642	     37.14877564	     -5.31014475	     -5.01052634	    -57.42745888	      1.85911036	      0.00000000	      0.00000000	     -2.79306485	      7.32904735	      5.02654267	    -23.34252012	      2.82400649	      0.00000000	      0.00000000	    -11.16411729	     -5.07645110	    -12.45199102	      0.00000000	      0.00000000	      0.00000000	     90.00000000	     90.00000000	      0.00000000	      0.00000000	      0.00000000	      0.00000000	      0.00000000	     90.00000000	     90.00000000	      0.00000000	      0.00000000
      6.07500000	     -2.80898523	     -7.33751079	     87.56363259	     -0.22253557	      1.10702092	     -0.42164413	     36.79362751	     -5.23019020	     -5.81559171	    -53.97675964	      1.47061723	      0.00000000	      0.00000000	     -3.53110356	      7.18891333	      4.84333129	    -22.86126093	      0.54843519	      0.00000000	      0.00000000	    -10.86580049	     -4.90239528	    -12.56036566	      0.00000000	      0.00000000	      0.00000000	     90.00000000	     90.00000000	      0.00000000	      0.00000000	      0.00000000	      0.00000000	      0.00000000	     90.00000000	     90.00000000	      0.00000000	      0.00000000
      6.08000000	     -2.82281918	     -7.43052289	     87.47376873	     -0.22243099	      1.11021438	     -0.42268461	     36.33165065	     -5.16870767	     -6.60372665	    -50.42562565	      1.06431177	      0.00000000	      0.00000000	     -4.21665603	      7.11256116	      4.65421306	    -22.48707660	     -1.78884049	      0.00000000	      0.00000000	    -10.61567594	     -4.81379096	    -12.65065253	      0.00000000	      0.00000000	      0.00000000	     90.00000000	     90.00000000	      0.00000000	      0.00000000	      0.00000000	      0.00000000	      0.00000000	     90.00000000	     90.00000000	      0.00000000	      0.00000000
      6.08500000	     -2.89926518	     -7.48686093	     87.39800592	     -0.22229692	      1.11321469	     -0.42368362	     35.77263670	     -5.11702591	     -7.34821283	    -46.80305442	      0.64424992	      0.00000000	      0.00000000	     -4.84642832	      7.10033513	      4.48036397	    -22.23878012	     -4.14682618	      0.00000000	      0.00000000	    -10.42036767	     -4.80889690	    -12.72779367	      0.00000000	      0.00000000	      0.00000000	     90.00000000	     90.00000000	      0.00000000	      0.00000000	      0.00000000	      0.00000000	      0.00000000	     90.00000000	     90.00000000	      0.00000000	      0.00000000
      6.09000000	     -3.03567362	     -7.50301467	     87.34226830	     -0.22213758	      1.11597624	     -0.42461491	     35.12953863	     -5.06781347	     -8.01824625	    -43.14570063	      0.21379261	      0.00000000	      0.00000000	     -5.41726079	      7.15132248	      4.34361678	    -22.13626544	     -6.47675836	      0.00000000	      0.00000000	    -10.28569543	     -4.88326797	    -12.79492366	      0.00000000	      0.00000000	      0.00000000	     90.00000000	     90.00000000	      0.00000000	      0.00000000	      0.00000000	      0.00000000	      0.00000000	     90.00000000	     90.00000000	      0.00000000	      0.00000000
      6.09500000	     -3.22701055	     -7.47681994	     87.30965262	     -0.22195688	      1.11845357	     -0.42545111	     34.41785245	     -5.01593170	     -8.58132287	    -39.49709944	     -0.22427606	      0.00000000	      0.00000000	     -5.92621335	      7.26381358	      4.26499995	    -22.19978035	     -8.72343987	      0.00000000	      0.00000000	    -10.21628614	     -5.02954725	    -12.85334871	      0.00000000	      0.00000000	      0.00000000	     90.00000000	     90.00000000	      0.00000000	      0.00000000	      0.00000000	      0.00000000	      0.00000000	     90.00000000	     90.00000000	      0.00000000	      0.00000000
